# xmcd
# 
# Track frame offsets:
#   150
#   12312
#   23647
#   34432
#   46280
#   55925
#   68375
#   81885
#   95002
#   109510
#   125450
#   138722
#   151120
#   170297
#   179530
#   191545
#   204987
#   214222
#   226027
#   238937
# 
# Disc length: 3353 seconds
# 
# Revision: 1
# Processed by: cddbd v1.5.2PL0 Copyright (c) Steve Scherf et al.
# Submitted via: VOLTOCDX V1.0.21 
# 
DISCID=0b0d1714
DTITLE=Tammy Wynette - The Best of Tammy
DYEAR=2002
DGENRE=country
TTITLE0=Stand By Your Man
TTITLE1=Good Lovin (Makes It Right)
TTITLE2=Singing My Song
TTITLE3=He Loves Me All The Way
TTITLE4=You Can't Hang On (Lookin' On)
TTITLE5=We Sure Can Love Each Other
TTITLE6=Almost Persuaded
TTITLE7=My Elusive Dreams
TTITLE8=Gentle On My Mind
TTITLE9=The Wonders You Perform
TTITLE10=D.I.V.O.R.C.E.
TTITLE11=Kids Say The Darndest Things
TTITLE12=Bedtime Story
TTITLE13=The Legend Of Bonnie And Clyde
TTITLE14=There Goes My Everthing
TTITLE15=Woman To Woman
TTITLE16=Your Good Girl's Gonna Go Bad
TTITLE17=I Don't Wanna Play House
TTITLE18=My Man (Understands)
TTITLE19=You'll Never Walk Alone
EXTD=
EXTT0=
EXTT1=
EXTT2=
EXTT3=
EXTT4=
EXTT5=
EXTT6=
EXTT7=
EXTT8=
EXTT9=
EXTT10=
EXTT11=
EXTT12=
EXTT13=
EXTT14=
EXTT15=
EXTT16=
EXTT17=
EXTT18=
EXTT19=
PLAYORDER=
